<?xml version="1.0" encoding="UTF-8"?>
<svg id="Layer_1" data-name="Layer 1" xmlns="http://www.w3.org/2000/svg" xmlns:xlink="http://www.w3.org/1999/xlink" viewBox="0 0 18 18">
  <defs>
    <style>
      .cls-1 {
        fill: none;
      }

      .cls-1, .cls-2, .cls-3, .cls-4 {
        stroke-width: 0px;
      }

      .cls-2 {
        fill: url(#linear-gradient);
      }

      .cls-2, .cls-3 {
        fill-rule: evenodd;
      }

      .cls-3 {
        fill: url(#linear-gradient-3);
      }

      .cls-4 {
        fill: url(#linear-gradient-2);
      }
    </style>
    <linearGradient id="linear-gradient" x1="12.76" y1="11.97" x2="10.26" y2="1.96" gradientUnits="userSpaceOnUse">
      <stop offset="0" stop-color="#B6862C"/>
      <stop offset=".09" stop-color="#E7C873"/>
      <stop offset=".18" stop-color="#FFD700"/>
      <stop offset=".27" stop-color="#FFD46B"/>
      <stop offset=".34" stop-color="#FFD966"/>
      <stop offset=".4" stop-color="#FFEA85"/>
      <stop offset=".5" stop-color="#F7D360"/>
      <stop offset=".61" stop-color="#E7B93E"/>
      <stop offset=".72" stop-color="#C99A2B"/>
      <stop offset=".83" stop-color="#A07816"/>
      <stop offset=".95" stop-color="#845C0A"/>
      <stop offset="1" stop-color="#B6862C"/>
    </linearGradient>
    <linearGradient id="linear-gradient-2" x1="13.71" y1="1.8" x2="13.71" y2="15.92" gradientUnits="userSpaceOnUse">
      <stop offset="0" stop-color="#FFE39F"/>
      <stop offset=".08" stop-color="#FFD180"/>
      <stop offset=".19" stop-color="#FFC14D"/>
      <stop offset=".3" stop-color="#FFB300"/>
      <stop offset=".41" stop-color="#E6A700"/>
      <stop offset=".54" stop-color="#D19B01"/>
      <stop offset=".67" stop-color="#B18507"/>
      <stop offset=".81" stop-color="#A37A0E"/>
      <stop offset="1" stop-color="#896513"/>
    </linearGradient>
    <linearGradient id="linear-gradient-3" x1="12.86" y1="2.12" x2="3.5" y2="17.13" gradientUnits="userSpaceOnUse">
      <stop offset="0" stop-color="#FFF9D2"/>
      <stop offset=".05" stop-color="#FFE89A"/>
      <stop offset=".11" stop-color="#FFD666"/>
      <stop offset=".18" stop-color="#FFCA39"/>
      <stop offset=".25" stop-color="#FFBE13"/>
      <stop offset=".33" stop-color="#F2AF0A"/>
      <stop offset=".42" stop-color="#DE9B06"/>
      <stop offset=".54" stop-color="#C18908"/>
      <stop offset=".68" stop-color="#A47809"/>
      <stop offset="1" stop-color="#896513"/>
    </linearGradient>
  </defs>
  <path class="cls-2" d="m11.52,1.59c.44,0,.83.33.97.81s.96,3.45.96,3.45v5.9h-2.97l.06-10.17h.98Z"/>
  <path class="cls-4" d="m15.88,6.2c0-.21-.17-.37-.37-.37h-1.75c-1.23,0-2.23,1-2.23,2.23v3.7h2.12c1.23,0,2.23-1,2.23-2.23v-3.33Z"/>
  <path class="cls-3" d="m11.52,1.59c-.34,0-.61.27-.61.61l-.06,11.23c0,1.64-1.33,2.97-2.97,2.97H2.49c-.26,0-.43-.25-.35-.49L6.46,3.58c.42-1.19,1.54-1.99,2.8-1.99h2.27Z"/>
  <rect class="cls-1" width="18" height="18"/>
</svg>
